<svg xmlns="http://www.w3.org/2000/svg" viewBox="0 0 200 200" role="img" aria-label="MolDynStudio dipyrone molecule logo">
  <rect width="200" height="200" rx="16" fill="#FFFFFF"/>
  <circle cx="100" cy="90" r="68" fill="#F5F5F5" stroke="#DCDCDC" stroke-width="2"/>
  <polygon points="100,58 132,80 120,116 80,116 68,80" fill="none" stroke="#E87722" stroke-width="5" stroke-linejoin="round"/>
  <circle cx="68" cy="80" r="5" fill="#E87722"/>
  <circle cx="132" cy="80" r="5" fill="#E87722"/>
  <polygon points="96,34 114,24 132,34 132,55 114,65 96,55" fill="none" stroke="#2C2C2C" stroke-width="4" stroke-linejoin="round"/>
  <line x1="100" y1="58" x2="105" y2="46" stroke="#2C2C2C" stroke-width="4" stroke-linecap="round"/>
  <line x1="68" y1="80" x2="48" y2="65" stroke="#2C2C2C" stroke-width="4" stroke-linecap="round"/>
  <text x="27" y="63" font-family="Segoe UI, Arial, sans-serif" font-size="12" font-weight="700" fill="#2C2C2C">CH3</text>
  <line x1="132" y1="80" x2="153" y2="65" stroke="#2C2C2C" stroke-width="4" stroke-linecap="round"/>
  <text x="151" y="63" font-family="Segoe UI, Arial, sans-serif" font-size="10" font-weight="700" fill="#2C2C2C">SO3Na</text>
  <line x1="80" y1="116" x2="80" y2="136" stroke="#E87722" stroke-width="4" stroke-linecap="round"/>
  <text x="74" y="151" font-family="Segoe UI, Arial, sans-serif" font-size="14" font-weight="700" fill="#E87722">O</text>
  <text x="100" y="170" font-family="Segoe UI, Arial, sans-serif" font-size="23" font-weight="800" text-anchor="middle" fill="#2C2C2C">MDS</text>
  <text x="100" y="187" font-family="Segoe UI, Arial, sans-serif" font-size="11" text-anchor="middle" fill="#2C2C2C">MolDynStudio</text>
</svg>

